<?xml version="1.0" encoding="UTF-8"?>
<!DOCTYPE svg PUBLIC "-//W3C//DTD SVG 1.1//EN" "http://www.w3.org/Graphics/SVG/1.1/DTD/svg11.dtd">
<!-- Creator: CorelDRAW X8 -->
<svg xmlns="http://www.w3.org/2000/svg" xml:space="preserve" width="215.9mm" height="279.4mm" version="1.1" style="shape-rendering:geometricPrecision; text-rendering:geometricPrecision; image-rendering:optimizeQuality; fill-rule:evenodd; clip-rule:evenodd"
viewBox="0 0 21590 27940"
 xmlns:xlink="http://www.w3.org/1999/xlink">
 <defs>
  <style type="text/css">
   <![CDATA[
    .fil0 {fill:#373435}
   ]]>
  </style>
 </defs>
 <g id="Capa_x0020_1">
  <metadata id="CorelCorpID_0Corel-Layer"/>
  <path class="fil0" d="M2202 4632l1971 0c92,0 168,76 168,168l0 1245 -1675 7c-330,63 -536,230 -633,491l0 -1743c0,-92 76,-168 169,-168z"/>
  <path class="fil0" d="M4496 5772l908 0c555,15 1042,405 1239,822l-2147 0 0 -822z"/>
  <path class="fil0" d="M4324 6581l-2126 0c96,-207 262,-342 538,-400l1588 0 0 400z"/>
  <path class="fil0" d="M6755 7971l0 -1110c0,-81 -66,-147 -147,-147l-4564 0c-81,0 -147,66 -147,147l0 1110 4858 0z"/>
  <path class="fil0" d="M1686 8646l5279 0c-34,-249 -181,-520 -434,-525l-4513 0c-249,30 -339,290 -332,525z"/>
  <rect class="fil0" x="10354" y="14501" width="1782" height="1647" rx="97" ry="97"/>
  <path class="fil0" d="M10349 15085c-1130,565 -976,1862 -107,3567l2003 0c888,-1739 1039,-3035 -86,-3566l-1810 -1z"/>
  <path class="fil0" d="M10163 19243l2159 0c55,0 116,-48 101,-101l-67 -221c-16,-53 -45,-100 -101,-100l-2025 0c-55,0 -84,47 -100,100l-67 221c-16,53 45,101 100,101z"/>
  <path class="fil0" d="M11919 13919l-1349 0c-55,0 -116,47 -100,100l67 222c15,53 45,100 100,100l1216 0c55,0 84,-48 100,-100l67 -222c16,-52 -45,-100 -101,-100z"/>
  <rect class="fil0" x="2662" y="15278" width="3289" height="834" rx="134" ry="134"/>
  <path class="fil0" d="M4330 17719c883,0 1602,704 1624,1582l-3249 0c23,-878 741,-1582 1625,-1582z"/>
  <path class="fil0" d="M4033 14060l576 0c79,0 144,65 144,144l0 3410c-140,-39 -288,-60 -440,-60 -146,0 -288,19 -423,56l0 -3406c0,-79 64,-144 143,-144z"/>
  <path class="fil0" d="M15845 15623c908,43 1669,676 2230,2108l25 -1302c162,44 325,38 488,0l65 1262c555,-1278 1285,-2013 2230,-2076 -1191,578 -1071,2930 -2254,2906l-37 303c-59,116 -396,139 -478,-9l-47 -294c-952,92 -1213,-2583 -2222,-2898z"/>
  <path class="fil0" d="M16846 13744c741,984 96,2078 1133,2453 527,124 977,85 1212,-260 52,-101 -41,-258 -211,-446 -755,-902 -1443,-1855 -2134,-1747z"/>
  <path class="fil0" d="M17685 13733c289,-137 513,-339 680,-598 161,225 378,433 662,621 -259,182 -483,416 -656,721 -203,-313 -435,-554 -686,-744z"/>
  <path class="fil0" d="M18459 14600l885 1003c46,-782 213,-1392 492,-1841 -459,-120 -918,239 -1377,838z"/>
  <circle class="fil0" cx="12595" cy="7836" r="476"/>
  <circle class="fil0" cx="16196" cy="7836" r="476"/>
  <path class="fil0" d="M11273 7957c-192,-14 -280,-132 -265,-354 17,-854 261,-1485 868,-1941 239,-140 550,-218 824,-232l2296 -6c221,21 431,114 608,415 303,458 645,750 1051,780 667,44 1178,650 824,1322l-614 1c6,-34 9,-70 9,-106 0,-375 -304,-678 -678,-678 -374,0 -678,303 -678,678 0,37 3,74 9,110l-2264 6c6,-38 10,-77 10,-116 0,-375 -304,-678 -678,-678 -374,0 -677,303 -677,678 0,41 3,81 10,120l-655 1zm2917 -2106c10,-120 83,-169 197,-171l462 0c197,13 336,110 428,228l374 418c64,110 25,166 -83,187l-1217 -13c-97,-6 -154,-45 -161,-128l0 -521z"/>
 </g>
</svg>
