<svg xmlns="http://www.w3.org/2000/svg" width="787" height="787" viewBox="0 0 787.3 787.3"><path d="M393.3 172c0.1 0 0.2 0 0.4 0 0.1 0 0.2 0 0.4 0 47.3 0 85.6-38.3 85.6-85.6 0-7.5-1-14.8-2.8-21.7 -9.5-36.9-43-64.2-82.9-64.2 -0.1 0-0.2 0-0.4 0 -0.1 0-0.2 0-0.4 0 -47.3-0.1-85.6 38.3-85.6 85.5 0 7.5 1 14.8 2.8 21.7C319.9 144.7 353.4 172 393.3 172z"/><path d="M394.1 172.5h-0.8c-39.3 0-73.6-26.6-83.4-64.7C308 100.7 307.1 93.3 307.1 86c0-47.4 38.5-86 85.9-86H394c39.3 0 73.6 26.6 83.4 64.6 1.9 7.2 2.8 14.5 2.8 21.8C480.2 133.9 441.6 172.5 394.1 172.5zM393 1C346.2 1 308.1 39.1 308.1 86c0 7.2 0.9 14.5 2.8 21.6 9.7 37.6 43.6 63.9 82.4 63.9h0.8c46.9 0 85.1-38.2 85.1-85.1 0-7.2-0.9-14.5-2.8-21.6C466.7 27.2 432.9 1 394 1H393z"/><path d="M483.8 207.9h-21.4L441 314.7h-25.3l-6.6-71.7c2-10.9 6.7-21.1 11.7-31.8 0 0 0.9-1.9 1.4-2.9l0 0c-0.1 0-0.2 0-0.3 0 0.1-0.1 0.1-0.3 0.2-0.4 -30 0-27.6 0-57 0l0 0c0.1 0.1 0.1 0.2 0.2 0.4h-0.1l0 0c0.5 1 1.4 2.9 1.4 2.9 4.4 9.3 8.5 18.2 10.8 27.6 0.3 1.3 0.6 2.6 0.8 3.9l-6.6 72.1h-25.3l-21.4-106.8H303.5c-32.5 0-58.8 26.3-58.8 58.8v171.3c0 32.5 26.3 58.8 58.8 58.8h7.5v248.9c0 22.9 18.6 41.5 41.5 41.5 21.3 0 38.9-16.1 41.2-36.9 2.3 20.7 19.9 36.9 41.2 36.9 22.9 0 41.5-18.6 41.5-41.5V496.7h7.5c32.5 0 58.8-26.3 58.8-58.8V266.6C542.5 234.2 516.2 207.9 483.8 207.9z"/><path d="M615.4 172c0.1 0 0.2 0 0.4 0 0.1 0 0.2 0 0.4 0 47.3 0 85.6-38.3 85.6-85.6 0-7.5-1-14.8-2.8-21.7 -9.5-36.9-43-64.2-82.9-64.2 -0.1 0-0.2 0-0.4 0 -0.1 0-0.2 0-0.4 0 -47.3 0-85.6 38.3-85.6 85.6 0 7.5 1 14.8 2.8 21.7C542 144.7 575.5 172 615.4 172z"/><path d="M616.2 172.5H615.4c-39.3 0-73.6-26.6-83.4-64.6 -1.9-7.2-2.8-14.5-2.8-21.8 0-47.5 38.6-86.1 86.1-86.1h0.8c39.3 0 73.6 26.6 83.4 64.6 1.9 7.2 2.8 14.5 2.8 21.8C702.3 133.9 663.7 172.5 616.2 172.5zM615.3 1c-46.9 0-85.1 38.2-85.1 85.1 0 7.2 0.9 14.5 2.8 21.6 9.7 37.6 43.6 63.8 82.4 63.8h0.8c46.9 0 85.1-38.2 85.1-85.1 0-7.2-0.9-14.5-2.8-21.6C688.8 27.2 655 1 616.1 1H615.3z"/><path d="M705.9 207.9h-21.4l-21.4 106.8H637.8l-6.6-71.7c2-10.9 6.7-21.1 11.7-31.8 0 0 0.9-1.9 1.4-2.9 -0.1 0-0.2 0-0.3 0 0.1-0.1 0.1-0.3 0.2-0.4 -30 0-27.6 0-57 0l0 0c0.1 0.1 0.1 0.2 0.2 0.4h-0.1l0 0c0.5 1 1.4 2.9 1.4 2.9 4.4 9.3 8.5 18.2 10.8 27.6 0.3 1.3 0.6 2.6 0.8 3.9l-6.6 72.1h-23v123.3c0 29.6-14.9 55.8-37.6 71.4v236.3c0 22.9 18.6 41.5 41.5 41.5 21.3 0 38.9-16.1 41.2-36.9 2.3 20.7 19.9 36.9 41.2 36.9 22.9 0 41.5-18.6 41.5-41.5V496.7h7.5c32.5 0 58.8-26.3 58.8-58.8V266.6C764.6 234.2 738.3 207.9 705.9 207.9z"/><path d="M171.2 172c0.1 0 0.2 0 0.4 0 0.1 0 0.2 0 0.4 0 47.3 0 85.6-38.3 85.6-85.6 0-7.5-1-14.8-2.8-21.7 -9.5-36.9-43-64.2-82.9-64.2 -0.1 0-0.2 0-0.4 0 -0.1 0-0.2 0-0.4 0 -47.3 0-85.6 38.3-85.6 85.6 0 7.5 1 14.8 2.8 21.7C97.8 144.7 131.3 172 171.2 172z"/><path d="M172 172.5h-0.8c-39.3 0-73.6-26.6-83.4-64.6C85.9 100.8 85 93.4 85 86.1 85 38.6 123.6 0 171.1 0h0.8c39.3 0 73.6 26.6 83.4 64.6 1.9 7.2 2.8 14.5 2.8 21.8C258.1 133.9 219.5 172.5 172 172.5zM171.1 1C124.2 1 86 39.2 86 86.1c0 7.2 0.9 14.5 2.8 21.6C98.5 145.3 132.4 171.5 171.2 171.5h0.8c46.9 0 85.1-38.2 85.1-85.1 0-7.2-0.9-14.5-2.8-21.6C244.6 27.2 210.8 1 171.9 1H171.1z"/><path d="M216.6 438V314.7h-23L187 243c2-10.9 6.7-21.1 11.7-31.8 0 0 0.9-1.9 1.4-2.9 -0.1 0-0.2 0-0.3 0 0.1-0.1 0.1-0.3 0.2-0.4 -30 0-27.6 0-57 0l0 0c0.1 0.1 0.1 0.2 0.2 0.4h-0.1l0 0c0.5 1 1.4 2.9 1.4 2.9 4.4 9.3 8.5 18.2 10.8 27.6 0.3 1.3 0.6 2.6 0.8 3.9l-6.6 72.1h-25.3L102.8 208H81.3c-32.5 0-58.8 26.3-58.8 58.8v171.3c0 32.5 26.3 58.8 58.8 58.8h7.5v248.9c0 22.9 18.6 41.5 41.5 41.5 21.3 0 38.9-16.1 41.2-36.9 2.3 20.7 19.9 36.9 41.2 36.9 22.9 0 41.5-18.6 41.5-41.5v-236.4C231.5 493.7 216.6 467.6 216.6 438z"/></svg>