<?xml version="1.0" encoding="UTF-8"?>
<!DOCTYPE svg PUBLIC "-//W3C//DTD SVG 1.1//EN" "http://www.w3.org/Graphics/SVG/1.1/DTD/svg11.dtd">
<!-- Creator: CorelDRAW X8 -->
<svg xmlns="http://www.w3.org/2000/svg" xml:space="preserve" width="215.9mm" height="279.4mm" version="1.1" style="shape-rendering:geometricPrecision; text-rendering:geometricPrecision; image-rendering:optimizeQuality; fill-rule:evenodd; clip-rule:evenodd"
viewBox="0 0 21590 27940"
 xmlns:xlink="http://www.w3.org/1999/xlink">
 <defs>
  <style type="text/css">
   <![CDATA[
    .fil0 {fill:#A19E8F}
   ]]>
  </style>
 </defs>
 <g id="Capa_x0020_1">
  <metadata id="CorelCorpID_0Corel-Layer"/>
  <path class="fil0" d="M3299 12163l-508 1377c-1218,408 -1808,1213 -814,1938 2020,961 4460,223 6330,-2065 -763,-245 -1527,-279 -2291,-253l344 -1033c748,212 1473,497 2222,980 1709,-1872 4345,-2779 7596,-2212 2773,720 4662,2403 2809,4238l-508 -1249c862,-799 493,-1391 -809,-1727 -2900,-475 -4899,408 -6582,2325 574,264 1140,392 1776,348l316 997c-828,-203 -1591,-539 -2299,-991 -1768,1795 -3840,2639 -6188,2309 -1877,-306 -3116,-1071 -3785,-2246 -519,-1637 490,-2432 2391,-2736z"/>
 </g>
</svg>
